<?xml version="1.0" encoding="iso-8859-1"?>
<!DOCTYPE svg PUBLIC "-//W3C//DTD SVG 1.1//EN" "http://www.w3.org/Graphics/SVG/1.1/DTD/svg11.dtd">
<svg fill="#17a2b8" version="1.1" id="Capa_1" xmlns="http://www.w3.org/2000/svg" xmlns:xlink="http://www.w3.org/1999/xlink"
	 width="25px" height="25px" viewBox="0 0 494.936 494.936"
	 xml:space="preserve">
<g>
	<g>
		<path d="M247.468,123.69c-68.275,0-126.843,36.374-168.596,91.882c-8.088,11.196-8.088,26.617,0,37.812
			c41.752,55.508,100.321,91.882,168.596,91.882s126.844-36.374,168.596-91.882c8.088-11.196,8.088-26.617,0-37.812
			C374.312,160.064,315.743,123.69,247.468,123.69z M247.468,322.279c-40.678,0-73.684-33.006-73.684-73.684
			s33.006-73.684,73.684-73.684s73.684,33.006,73.684,73.684S288.146,322.279,247.468,322.279z"/>
		<path d="M247.468,197.956c-28.495,0-51.639,23.145-51.639,51.639s23.145,51.639,51.639,51.639s51.639-23.145,51.639-51.639
			S275.963,197.956,247.468,197.956z"/>
	</g>
</g>
</svg>
